<?xml version="1.0" encoding="UTF-8"?>
<svg version="1.1" xmlns="http://www.w3.org/2000/svg" width="500" height="500">
<path d="M0 0 C1.18088994 -0.01515333 2.36177989 -0.03030666 3.57845438 -0.04591918 C6.84872123 -0.0805974 10.1172733 -0.08394974 13.38765311 -0.07376671 C16.91764426 -0.07027666 20.44725764 -0.10690414 23.9770813 -0.13809204 C30.89059194 -0.19234598 37.80366808 -0.20790555 44.71737225 -0.20835367 C50.33980167 -0.2089475 55.9620914 -0.22098234 61.5844841 -0.24108124 C77.53620828 -0.29697103 93.48760175 -0.32464821 109.43942328 -0.31457093 C110.29910689 -0.31402852 111.15879051 -0.3134861 112.04452515 -0.31292725 C112.9052627 -0.31237877 113.76600025 -0.3118303 114.65282075 -0.3112652 C128.59312916 -0.30406942 142.53225636 -0.36312031 156.47224875 -0.45267466 C170.79662501 -0.54397387 185.12042987 -0.58665171 199.445104 -0.57858253 C207.4830528 -0.57501538 215.51982328 -0.59109924 223.55751419 -0.65918732 C230.40355546 -0.71676522 237.24784301 -0.72879411 244.09400304 -0.68285003 C247.58424737 -0.66069806 251.0711698 -0.65899733 254.56111526 -0.71461868 C276.57005389 -1.00008215 276.57005389 -1.00008215 282.56830978 3.73389435 C285.72932761 6.81614504 288.00386882 10.20141365 290.34970093 13.92926025 C291.86903953 15.80176669 293.40705356 17.65950703 294.97470093 19.49176025 C295.67595093 20.37090088 296.37720093 21.2500415 297.09970093 22.15582275 C298.75328247 24.19409167 300.42731662 26.17376046 302.16220093 28.14019775 C302.63061401 28.67830078 303.0990271 29.21640381 303.58163452 29.77081299 C304.90545794 31.28743298 306.24056419 32.79418264 307.57626343 34.300354 C309.34970093 36.92926025 309.34970093 36.92926025 309.35751343 38.97613525 C308.04072903 41.528043 306.45157446 43.5418156 304.59970093 45.74176025 C303.38733765 47.18615479 303.38733765 47.18615479 302.15048218 48.659729 C301.21825784 49.75074435 300.2845768 50.84051611 299.34970093 51.92926025 C298.8319812 52.53334717 298.31426147 53.13743408 297.78085327 53.75982666 C290.85859233 61.82101101 290.85859233 61.82101101 288.1229046 64.86327982 C286.30788097 66.91913832 286.30788097 66.91913832 284.69439572 69.22491217 C282.07204371 72.65555947 279.92721696 75.42159001 275.72808516 76.77293873 C272.61063878 77.10663006 269.60073674 77.15820095 266.46562195 77.11248779 C264.69278211 77.13989776 264.69278211 77.13989776 262.88412732 77.16786146 C259.61992195 77.20904463 256.35860836 77.21015018 253.09427655 77.19373655 C249.56762318 77.18570157 246.04154131 77.2293656 242.51512146 77.26602173 C235.61215722 77.32909744 228.70994925 77.34281148 221.80673084 77.33745807 C216.19242799 77.33352987 210.57836039 77.34497442 204.96410179 77.36723328 C203.34478466 77.37353114 201.7254675 77.37982394 200.10615033 77.38611174 C198.89702696 77.39080761 198.89702696 77.39080761 197.66347685 77.39559835 C182.42714596 77.45227254 167.19124861 77.44916629 151.954856 77.42869037 C138.0345671 77.41197431 124.11593636 77.47439748 110.19603489 77.57377177 C95.88622927 77.67513236 81.57721676 77.72046911 67.26704568 77.70662069 C59.23957979 77.69990009 51.21364536 77.71540781 43.1864872 77.79029846 C36.3501926 77.85353773 29.51626794 77.86392966 22.6798738 77.80739969 C19.19518768 77.78003091 15.71491017 77.77612051 12.23057556 77.83846664 C-9.72844325 78.15586255 -9.72844325 78.15586255 -16.05326271 72.70829773 C-18.93733966 69.68069027 -21.23674538 66.4247273 -23.40785658 62.86074734 C-25.46662042 59.66021629 -28.00394915 56.89325847 -30.52529907 54.05426025 C-34.71732011 49.12871956 -38.74626529 44.08578269 -42.65029907 38.92926025 C-40.15959206 34.34844946 -36.96439189 30.67862486 -33.52529907 26.80426025 C-28.82314206 21.44758814 -24.22156861 16.04153102 -19.74795532 10.49176025 C-19.05572876 9.64613525 -18.3635022 8.80051025 -17.65029907 7.92926025 C-17.28473549 7.35214806 -16.91917192 6.77503586 -16.54253066 6.18043542 C-12.06669669 -0.22390845 -7.40983884 -0.07742601 0 0 Z " fill="#014AAC" transform="translate(128.65029907226563,174.07073974609375)"/>
<path d="M0 0 C4 4 4 4 4.0078125 5.921875 C2.64905293 8.72365829 0.88194225 10.86888208 -1.125 13.25 C-2.33349609 14.69052734 -2.33349609 14.69052734 -3.56640625 16.16015625 C-6.6837851 19.79793221 -9.81269034 23.42324415 -13 27 C-13.66 26.67 -14.32 26.34 -15 26 C-15 25.01 -15 24.02 -15 23 C-14.34 23 -13.68 23 -13 23 C-12.34 21.02 -11.68 19.04 -11 17 C-9.35 16.67 -7.7 16.34 -6 16 C-6 15.01 -6 14.02 -6 13 C-5.01 13 -4.02 13 -3 13 C-2.01 8.71 -1.02 4.42 0 0 Z " fill="#3D6FB1" transform="translate(434,207)"/>
<path d="M0 0 C1 3 1 3 0.22265625 4.82421875 C-0.8515625 6.54947917 -1.92578125 8.27473958 -3 10 C-3.99 10 -4.98 10 -6 10 C-5.67 11.32 -5.34 12.64 -5 14 C-3.68 14 -2.36 14 -1 14 C-0.67 14.99 -0.34 15.98 0 17 C-0.66 18.32 -1.32 19.64 -2 21 C-4.31 18.03 -6.62 15.06 -9 12 C-6.53974941 7.48954059 -3.39717963 3.81495577 0 0 Z " fill="#4A77B8" transform="translate(95,201)"/>
<path d="M0 0 C-0.59283621 3.39192363 -1.76743189 5.2107757 -4.0625 7.75 C-4.61035156 8.36359375 -5.15820312 8.9771875 -5.72265625 9.609375 C-6.14417969 10.06828125 -6.56570313 10.5271875 -7 11 C-7.66 10.67 -8.32 10.34 -9 10 C-9 9.01 -9 8.02 -9 7 C-8.34 7 -7.68 7 -7 7 C-6.71125 6.030625 -6.4225 5.06125 -6.125 4.0625 C-4.66280494 0.08208012 -4.16327974 0 0 0 Z " fill="#3669B6" transform="translate(428,223)"/>
<path d="M0 0 C1.98 0.66 3.96 1.32 6 2 C4.35 3.98 2.7 5.96 1 8 C0.17361624 5.10765685 0 3.11257569 0 0 Z " fill="#366DB4" transform="translate(413,234)"/>
<path d="M0 0 C0.33 0.99 0.66 1.98 1 3 C-0.9375 6.1875 -0.9375 6.1875 -3 9 C-3.99 8.34 -4.98 7.68 -6 7 C-4.02 4.69 -2.04 2.38 0 0 Z " fill="#3B6FB2" transform="translate(102,193)"/>
<path d="M0 0 C1.98 0.66 3.96 1.32 6 2 C6.12375 2.804375 6.2475 3.60875 6.375 4.4375 C6.684375 5.7059375 6.684375 5.7059375 7 7 C7.66 7.33 8.32 7.66 9 8 C8.01 8 7.02 8 6 8 C4.39453125 6.25 4.39453125 6.25 2.8125 4 C2.28269531 3.2575 1.75289063 2.515 1.20703125 1.75 C0.80871094 1.1725 0.41039063 0.595 0 0 Z " fill="#4A7BB8" transform="translate(94,222)"/>
<path d="M0 0 C0.66 0 1.32 0 2 0 C2.103125 0.639375 2.20625 1.27875 2.3125 1.9375 C2.539375 2.618125 2.76625 3.29875 3 4 C3.99 4.33 4.98 4.66 6 5 C5.34 5.66 4.68 6.32 4 7 C2.35 5.02 0.7 3.04 -1 1 C-0.67 0.67 -0.34 0.34 0 0 Z " fill="#537FBD" transform="translate(104,232)"/>
<path d="M0 0 C0.66 0.99 1.32 1.98 2 3 C1.34 4.32 0.68 5.64 0 7 C-3 3.25 -3 3.25 -3 1 C-2.01 0.67 -1.02 0.34 0 0 Z " fill="#376FB5" transform="translate(93,215)"/>
</svg>
